<svg id="Layer_1" data-name="Layer 1" xmlns="http://www.w3.org/2000/svg" viewBox="0 0 481 481"><defs><style>.cls-1{fill:#fff}</style></defs><rect width="481" height="481" rx="54.31"/><path class="cls-1" d="M143.82 286.21q0-8.9-6.28-13.66t-22.61-10q-16.32-5.29-25.85-10.42-25.95-14-26-37.78a36.79 36.79 0 017-22q7-9.69 20-15.13a75.34 75.34 0 0129.25-5.44q16.32 0 29.09 5.92a46.26 46.26 0 0119.84 16.69 43.68 43.68 0 017.06 24.49h-31.4q0-10.47-6.59-16.27t-18.52-5.81q-11.52 0-17.9 4.86a15.35 15.35 0 00-6.39 12.82q0 7.44 7.49 12.46t22 9.42q26.79 8.06 39 20T175.32 286q0 19.78-15 31t-40.3 11.25a77.86 77.86 0 01-32-6.44q-14.43-6.44-22-17.63a45.17 45.17 0 01-7.59-26h31.49q0 25.23 30.14 25.22 11.2 0 17.48-4.55a14.81 14.81 0 006.28-12.64zM275.59 286.21q0-8.9-6.28-13.66t-22.61-10q-16.32-5.29-25.85-10.42-25.95-14-25.95-37.78a36.73 36.73 0 017-22q6.94-9.69 20-15.13a75.34 75.34 0 0129.25-5.44q16.32 0 29.09 5.92A46.26 46.26 0 01300 194.32a43.68 43.68 0 017.06 24.49h-31.4q0-10.47-6.59-16.27t-18.52-5.81q-11.52 0-17.9 4.86a15.35 15.35 0 00-6.39 12.82q0 7.44 7.49 12.46t22 9.42q26.79 8.06 39 20T307.09 286q0 19.78-15 31t-40.3 11.25a77.86 77.86 0 01-32-6.44q-14.43-6.44-22-17.63a45.17 45.17 0 01-7.58-26h31.5q0 25.23 30.14 25.22 11.21 0 17.48-4.55a14.81 14.81 0 006.26-12.64zM328.34 326.19V173.81h53.38q27.73 0 42.07 10.62t14.34 31.14a34.38 34.38 0 01-5.76 19.72 33.17 33.17 0 01-16 12.51 32.22 32.22 0 0118.47 11.83q6.75 8.89 6.76 21.77 0 22-14 33.28t-40 11.51zm31.4-88.54H383q23.76-.42 23.76-18.94 0-10.36-6-14.92t-19-4.55h-22zm0 22.19V301h26.9q11.08 0 17.32-5.28t6.23-14.61q0-20.93-21.67-21.24z" transform="translate(-10 -10)"/></svg>